<svg width="25" height="25" viewBox="0 0 25 25" fill="none" xmlns="http://www.w3.org/2000/svg">
<g clip-path="url(#clip0_10_85)">
<path fill-rule="evenodd" clip-rule="evenodd" d="M2.77778 25H22.2222C23.7563 25 25 23.7563 25 22.2222V2.77778C25 1.24365 23.7563 0 22.2222 0H2.77778C1.24365 0 0 1.24365 0 2.77778V22.2222C0 23.7563 1.24365 25 2.77778 25Z" fill="#6C757D"/>
<path fill-rule="evenodd" clip-rule="evenodd" d="M21.5278 21.5278H17.8179V15.2091C17.8179 13.4767 17.1597 12.5085 15.7884 12.5085C14.2967 12.5085 13.5174 13.516 13.5174 15.2091V21.5278H9.94214V9.49074H13.5174V11.1121C13.5174 11.1121 14.5924 9.12299 17.1467 9.12299C19.6999 9.12299 21.5278 10.6821 21.5278 13.9067V21.5278ZM5.67686 7.91459C4.45905 7.91459 3.47223 6.92002 3.47223 5.69341C3.47223 4.46679 4.45905 3.47222 5.67686 3.47222C6.89467 3.47222 7.88091 4.46679 7.88091 5.69341C7.88091 6.92002 6.89467 7.91459 5.67686 7.91459ZM3.83075 21.5278H7.55883V9.49074H3.83075V21.5278Z" fill="#0B0A0A"/>
</g>
<defs>
<clipPath id="clip0_10_85">
<rect width="25" height="25" fill="white"/>
</clipPath>
</defs>
</svg>
